<?xml version="1.0" encoding="UTF-8" standalone="no"?>
<svg width="18px" height="18px" viewBox="0 0 18 18" version="1.1" xmlns="http://www.w3.org/2000/svg" xmlns:xlink="http://www.w3.org/1999/xlink" xmlns:sketch="http://www.bohemiancoding.com/sketch/ns">
    <!-- Generator: sketchtool 3.4 (356) - http://www.bohemiancoding.com/sketch -->
    <title>mode_edit</title>
    <desc>Created with sketchtool.</desc>
    <defs></defs>
    <g id="Page-1" stroke="none" stroke-width="1" fill="none" fill-rule="evenodd" sketch:type="MSPage">
        <g id="layout-TABS-menu" sketch:type="MSArtboardGroup" transform="translate(-37.000000, -109.000000)" fill="#444444">
            <g id="Menu-principal" sketch:type="MSLayerGroup" transform="translate(0.000000, 53.000000)">
                <g id="Nivel1" sketch:type="MSShapeGroup">
                    <g id="Item---activar-numeración" transform="translate(0.000000, 56.000000)">
                        <g id="mode_edit" transform="translate(37.000000, 0.000000)">
                            <path d="M17.719,4.031 L15.891,5.859 L12.141,2.109 L13.969,0.281 C14.1563333,0.0936666667 14.3906667,0 14.672,0 C14.9533333,0 15.1876667,0.0936666667 15.375,0.281 L17.719,2.625 C17.9063333,2.81233333 18,3.04666667 18,3.328 C18,3.60933333 17.9063333,3.84366667 17.719,4.031 L17.719,4.031 Z M0,14.25 L11.063,3.187 L14.813,6.937 L3.75,18 L1.77635684e-15,18 L1.77635684e-15,14.25 L0,14.25 Z" id="Shape"></path>
                        </g>
                    </g>
                </g>
            </g>
        </g>
    </g>
</svg>