<?xml version="1.0" encoding="UTF-8" standalone="no"?>
<svg width="24px" height="14px" viewBox="0 0 24 14" version="1.1" xmlns="http://www.w3.org/2000/svg" xmlns:xlink="http://www.w3.org/1999/xlink" xmlns:sketch="http://www.bohemiancoding.com/sketch/ns">
    <!-- Generator: sketchtool 3.4 (356) - http://www.bohemiancoding.com/sketch -->
    <title>people</title>
    <desc>Created with sketchtool.</desc>
    <defs></defs>
    <g id="Page-1" stroke="none" stroke-width="1" fill="none" fill-rule="evenodd" sketch:type="MSPage">
        <g id="layout-TABS-menu" sketch:type="MSArtboardGroup" transform="translate(-531.000000, -168.000000)" fill="#F2F2F2">
            <g id="Main" sketch:type="MSLayerGroup" transform="translate(507.000000, 167.000000)">
                <g id="listado----ContactNet" transform="translate(24.000000, 1.000000)" sketch:type="MSShapeGroup">
                    <g id="ContactNet-(12)-+-people">
                        <g id="people">
                            <path d="M15.984,7.984 C16.8593333,7.984 17.8123333,8.109 18.843,8.359 C19.8736667,8.609 20.8266667,9.01533333 21.702,9.578 C22.5773333,10.1406667 23.015,10.7813333 23.015,11.5 L23.015,13.984 L17.015,13.984 L17.015,11.5 C17.015,10.1246667 16.3586667,8.96833333 15.046,8.031 C15.2646667,7.99966667 15.5773333,7.984 15.984,7.984 L15.984,7.984 Z M8.016,7.984 C8.89133333,7.984 9.84433333,8.109 10.875,8.359 C11.9056667,8.609 12.851,9.01533333 13.711,9.578 C14.571,10.1406667 15.0006667,10.7813333 15,11.5 L15,13.984 L0.984,13.984 L0.984,11.5 C0.984,10.7813333 1.42166667,10.1406667 2.297,9.578 C3.17233333,9.01533333 4.12533333,8.609 5.156,8.359 C6.18666667,8.109 7.13966667,7.984 8.015,7.984 L8.016,7.984 Z M8.016,6.016 C7.20333333,6.016 6.50033333,5.719 5.907,5.125 C5.31366667,4.531 5.01666667,3.828 5.016,3.016 C5.01533333,2.204 5.31233333,1.501 5.907,0.907 C6.50166667,0.313 7.20466667,0.016 8.016,0.016 C8.82733333,0.016 9.52266667,0.313 10.102,0.907 C10.6813333,1.501 10.9703333,2.204 10.969,3.016 C10.9676667,3.828 10.6786667,4.531 10.102,5.125 C9.52533333,5.719 8.83,6.016 8.016,6.016 L8.016,6.016 Z M15.984,6.016 C15.1713333,6.016 14.4683333,5.719 13.875,5.125 C13.2816667,4.531 12.9846667,3.828 12.984,3.016 C12.9833333,2.204 13.2803333,1.501 13.875,0.907 C14.4696667,0.313 15.1726667,0.016 15.984,0.016 C16.7953333,0.016 17.4983333,0.313 18.093,0.907 C18.6876667,1.501 18.9846667,2.204 18.984,3.016 C18.9833333,3.828 18.6863333,4.531 18.093,5.125 C17.4996667,5.719 16.7966667,6.016 15.984,6.016 L15.984,6.016 Z" id="Shape"></path>
                        </g>
                    </g>
                </g>
            </g>
        </g>
    </g>
</svg>