<?xml version="1.0" encoding="UTF-8" standalone="no"?>
<svg width="18px" height="20px" viewBox="0 0 18 20" version="1.1" xmlns="http://www.w3.org/2000/svg" xmlns:xlink="http://www.w3.org/1999/xlink" xmlns:sketch="http://www.bohemiancoding.com/sketch/ns">
    <!-- Generator: sketchtool 3.4 (356) - http://www.bohemiancoding.com/sketch -->
    <title>insert_drive_file</title>
    <desc>Created with sketchtool.</desc>
    <defs></defs>
    <g id="Page-1" stroke="none" stroke-width="1" fill="none" fill-rule="evenodd" sketch:type="MSPage">
        <g id="layout-TABS-menu" sketch:type="MSArtboardGroup" transform="translate(-37.000000, -53.000000)" fill="#444444">
            <g id="Menu-principal" sketch:type="MSLayerGroup" transform="translate(0.000000, 53.000000)">
                <g id="Nivel1" sketch:type="MSShapeGroup">
                    <g id="Item---nueva-configuración">
                        <g id="insert_drive_file" transform="translate(37.000000, 0.000000)">
                            <path d="M9.984,7 L15.515,7 L9.984,1.516 L9.984,7 L9.984,7 Z M3,0.016 L11.016,0.016 L17.016,6.016 L17.016,18.016 C17.016,18.5473333 16.813,19.0083333 16.407,19.399 C16.001,19.7896667 15.5323333,19.985 15.001,19.985 L3.001,19.985 C2.46966667,19.985 2.001,19.7896667 1.595,19.399 C1.189,19.0083333 0.986,18.5473333 0.986,18.016 L1.033,1.985 C1.033,1.45366667 1.22833333,0.992666667 1.619,0.602 C2.00966667,0.211333333 2.47066667,0.016 3.002,0.016 L3,0.016 Z" id="Shape"></path>
                        </g>
                    </g>
                </g>
            </g>
        </g>
    </g>
</svg>