<?xml version="1.0" encoding="UTF-8" standalone="no"?>
<svg width="24px" height="18px" viewBox="0 0 24 18" version="1.1" xmlns="http://www.w3.org/2000/svg" xmlns:xlink="http://www.w3.org/1999/xlink" xmlns:sketch="http://www.bohemiancoding.com/sketch/ns">
    <!-- Generator: sketchtool 3.4 (356) - http://www.bohemiancoding.com/sketch -->
    <title>contact_phone</title>
    <desc>Created with sketchtool.</desc>
    <defs></defs>
    <g id="Page-1" stroke="none" stroke-width="1" fill="none" fill-rule="evenodd" sketch:type="MSPage">
        <g id="layout-TABS-menu" sketch:type="MSArtboardGroup" transform="translate(-736.000000, -167.000000)" fill="#F2F2F2">
            <g id="Main" sketch:type="MSLayerGroup" transform="translate(507.000000, 167.000000)">
                <g id="listado----Canales" transform="translate(229.000000, 0.000000)" sketch:type="MSShapeGroup">
                    <g id="ContactNet-(12)-+-people">
                        <g id="contact_phone">
                            <path d="M17.859,11.016 C17.609,10.36 17.484,9.688 17.484,9 C17.484,8.312 17.609,7.64 17.859,6.984 L19.5,6.984 L21,5.015 L19.031,2.999 C17.6556667,4.03033333 16.7336667,5.35833333 16.265,6.983 C16.0776667,7.639 15.984,8.311 15.984,8.999 C15.984,9.687 16.0776667,10.359 16.265,11.015 C16.7336667,12.6403333 17.6556667,13.9683333 19.031,14.999 L21,12.983 L19.5,11.014 L17.859,11.014 L17.859,11.016 Z M14.016,15 L14.016,14.016 C14.016,13.11 13.3283333,12.3676667 11.953,11.789 C10.5776667,11.2103333 9.265,10.9213333 8.015,10.922 C6.765,10.9226667 5.45233333,11.2116667 4.077,11.789 C2.70166667,12.3663333 2.014,13.1086667 2.014,14.016 L2.014,15 L14.014,15 L14.016,15 Z M8.016,3 C7.20333333,3 6.50033333,3.297 5.907,3.891 C5.31366667,4.485 5.01666667,5.188 5.016,6 C5.01533333,6.812 5.31233333,7.515 5.907,8.109 C6.50166667,8.703 7.20466667,9 8.016,9 C8.82733333,9 9.53033333,8.703 10.125,8.109 C10.7196667,7.515 11.0166667,6.812 11.016,6 C11.0153333,5.188 10.7183333,4.485 10.125,3.891 C9.53166667,3.297 8.82866667,3 8.016,3 L8.016,3 Z M21.984,2.66453526e-15 C22.5153333,2.66453526e-15 22.984,0.203 23.39,0.609 C23.796,1.015 23.999,1.48366667 23.999,2.015 L23.999,15.984 C23.999,16.5153333 23.796,16.984 23.39,17.39 C22.984,17.796 22.5153333,17.999 21.984,17.999 L2.015,17.999 C1.48366667,17.999 1.015,17.796 0.609,17.39 C0.203,16.984 1.48029737e-16,16.5153333 0,15.984 L0,2.015 C0,1.48366667 0.203,1.015 0.609,0.609 C1.015,0.203 1.48366667,-1.77635684e-15 2.015,-1.77635684e-15 L21.984,-1.77635684e-15 L21.984,2.66453526e-15 Z" id="Shape"></path>
                        </g>
                    </g>
                </g>
            </g>
        </g>
    </g>
</svg>