<?xml version="1.0" encoding="UTF-8" standalone="no"?>
<svg width="20px" height="20px" viewBox="0 0 20 20" version="1.1" xmlns="http://www.w3.org/2000/svg" xmlns:xlink="http://www.w3.org/1999/xlink" xmlns:sketch="http://www.bohemiancoding.com/sketch/ns">
    <!-- Generator: sketchtool 3.4 (356) - http://www.bohemiancoding.com/sketch -->
    <title>Shape</title>
    <desc>Created with sketchtool.</desc>
    <defs></defs>
    <g id="Page-1" stroke="none" stroke-width="1" fill="none" fill-rule="evenodd" sketch:type="MSPage">
        <g id="layout-TABS-menu" sketch:type="MSArtboardGroup" transform="translate(-36.000000, -164.000000)" fill="#444444">
            <g id="Menu-principal" sketch:type="MSLayerGroup" transform="translate(0.000000, 53.000000)">
                <g id="Nivel1" sketch:type="MSShapeGroup">
                    <g id="Item---Repositorio" transform="translate(36.000000, 111.000000)">
                        <path d="M9.7544306,13.501 C10.7230973,13.501 11.5510973,13.1573333 12.2384306,12.47 C12.9257639,11.7826667 13.2694306,10.9546667 13.2694306,9.986 C13.2694306,9.01733333 12.9257639,8.18933333 12.2384306,7.502 C11.5510973,6.81466667 10.7230973,6.471 9.7544306,6.471 C8.78576394,6.471 7.95776394,6.81466667 7.2704306,7.502 C6.58309727,8.18933333 6.2394306,9.01733333 6.2394306,9.986 C6.2394306,10.9546667 6.58309727,11.7826667 7.2704306,12.47 C7.95776394,13.1573333 8.78576394,13.501 9.7544306,13.501 L9.7544306,13.501 Z M17.2074306,10.969 L19.3164306,12.61 C19.5350973,12.766 19.5664306,12.9846667 19.4104306,13.266 L17.3944306,16.735 C17.2690973,16.9536667 17.0660973,17.0163333 16.7854306,16.923 L14.3014306,15.939 C13.6454306,16.4076667 13.0827639,16.7356667 12.6134306,16.923 L12.2384306,19.548 C12.1757639,19.8293333 12.0194306,19.97 11.7694306,19.97 L7.7384306,19.97 C7.4884306,19.97 7.33209727,19.8293333 7.2694306,19.548 L6.8944306,16.923 C6.3004306,16.673 5.73776394,16.345 5.2064306,15.939 L2.7224306,16.923 C2.44109727,17.017 2.23809727,16.9543333 2.1134306,16.735 L0.097430605,13.266 C-0.058569395,12.9846667 -0.0272360617,12.766 0.191430605,12.61 L2.3004306,10.969 C2.26909727,10.7503333 2.2534306,10.4223333 2.2534306,9.985 C2.2534306,9.54766667 2.26909727,9.21966667 2.3004306,9.001 L0.191430605,7.36 C-0.0272360617,7.204 -0.058569395,6.98533333 0.097430605,6.704 L2.1134306,3.235 C2.23876394,3.01633333 2.44176394,2.95366667 2.7224306,3.047 L5.2064306,4.031 C5.8624306,3.56233333 6.42509727,3.23433333 6.8944306,3.047 L7.2694306,0.422 C7.33209727,0.140666667 7.4884306,0 7.7384306,0 L11.7694306,0 C12.0194306,0 12.1757639,0.140666667 12.2384306,0.422 L12.6134306,3.047 C13.2074306,3.297 13.7700973,3.625 14.3014306,4.031 L16.7854306,3.047 C17.0667639,2.953 17.2697639,3.01566667 17.3944306,3.235 L19.4104306,6.704 C19.5664306,6.98533333 19.5350973,7.204 19.3164306,7.36 L17.2074306,9.001 C17.2387639,9.21966667 17.2544306,9.54766667 17.2544306,9.985 C17.2544306,10.4223333 17.2387639,10.7503333 17.2074306,10.969 L17.2074306,10.969 Z" id="Shape"></path>
                    </g>
                </g>
            </g>
        </g>
    </g>
</svg>